<svg viewBox="0 0 385 35" xmlns="http://www.w3.org/2000/svg">
  <path d="M0 0 C2.2265625 0.74609375 2.2265625 0.74609375 4.3125 1.625 C7.72942879 3.37257722 7.72942879 3.37257722 10 2.1875 C10.66 1.795625 11.32 1.40375 12 1 C14.71874043 0.75332927 17.25883852 0.86518878 20 1 C20.495 1.495 20.495 1.495 21 2 C24.03623255 2.28549649 27.07257785 2.44868814 30.1171875 2.62109375 C33 3 33 3 36 5 C36.33 4.505 36.66 4.01 37 3.5 C40.20982588 1.09263059 43.05908683 1.74574754 47 2 C47.495 2.495 47.495 2.495 48 3 C51.99793309 3.71742051 55.93780433 4.10818098 60 4 C62.69433317 2.12802546 62.69433317 2.12802546 65 0 C71.26608912 -1.17032015 76.26917343 0.62862349 82 3 C82.99 3 83.98 3 85 3 C85.33 2.67 85.66 2.34 86 2 C87.8125 1.8671875 87.8125 1.8671875 90 1.875 C90.721875 1.87242187 91.44375 1.86984375 92.1875 1.8671875 C94 2 94 2 95 3 C98.72344639 3.54050028 102.24055985 4 106 4 C106.66 3.34 107.32 2.68 108 2 C110.71454956 1.67247766 113.25230759 1.8691575 116 2 C116.33 2.33 116.66 2.66 117 3 C119.80823199 3.28397852 122.61646635 3.44846665 125.43359375 3.62109375 C128 4 128 4 130 6 C130.58926801 9.91314597 130.55586585 13.86033106 130.625 17.8125 C130.71201172 19.4531543 130.71201172 19.4531543 130.80078125 21.12695312 C130.92473944 28.95062177 130.92473944 28.95062177 128.31542969 31.91162109 C125.35553352 33.8983913 123.34974957 35.23573296 119.73681641 34.60473633 C118.87709229 34.30539185 118.87709229 34.30539185 118 34 C117.67 32.68 117.34 31.36 117 30 C116.0925 30.515625 115.185 31.03125 114.25 31.5625 C110.89939298 33.04449926 110.24540948 33.23101739 107 32 C106.01 32 105.02 32 104 32 C103.67 32.33 103.34 32.66 103 33 C91.13411127 34.08718876 91.13411127 34.08718876 85.6875 31.3125 C83.41614606 26.85391634 83.34498302 22.82210539 83.23828125 17.86328125 C83.29951242 14.8688268 83.29951242 14.8688268 81 13 C78.39719432 13.32041397 78.39719432 13.32041397 76 14 C76.0928125 15.09699219 76.185625 16.19398437 76.28125 17.32421875 C76.95970145 28.70668805 76.95970145 28.70668805 74.359375 32.2109375 C71.39206288 34.11221527 69.3521578 35.21337242 65.796875 34.65234375 C64 34 64 34 63 33 C62.91330568 31.5112814 62.89296506 30.018555 62.90234375 28.52734375 C62.90717773 27.17866211 62.90717773 27.17866211 62.91210938 25.80273438 C62.92467773 24.38444336 62.92467773 24.38444336 62.9375 22.9375 C62.94201172 21.98810547 62.94652344 21.03871094 62.95117188 20.06054688 C62.9629989 17.70696935 62.97947975 15.35351523 63 13 C62.34 13 61.68 13 61 13 C61.0928125 14.16917969 61.185625 15.33835937 61.28125 16.54296875 C61.95995005 28.66749791 61.95995005 28.66749791 59.359375 32.27734375 C56.34345163 34.20418368 54.327863 35.24267841 50.734375 34.5859375 C50.16203125 34.39257812 49.5896875 34.19921875 49 34 C48.505 32.02 48.505 32.02 48 30 C47.0925 30.515625 46.185 31.03125 45.25 31.5625 C42 33 42 33 39.6875 32.75 C38 32 38 32 37 31 C36.76321284 28.30764224 36.57801975 25.63501844 36.4375 22.9375 C36.39431641 22.17888672 36.35113281 21.42027344 36.30664062 20.63867188 C36.20026367 18.75934562 36.09960066 16.87969756 36 15 C35.01 15 34.02 15 33 15 C32.92652344 16.80597656 32.92652344 16.80597656 32.8515625 18.6484375 C32.77653657 20.22398198 32.70098867 21.79950166 32.625 23.375 C32.5940625 24.1690625 32.563125 24.963125 32.53125 25.78125 C32.2265625 31.7734375 32.2265625 31.7734375 30 34 C24.81034483 34.49425287 24.81034483 34.49425287 22 34 C20 32 20 32 19 30 C18.608125 30.515625 18.21625 31.03125 17.8125 31.5625 C16 33 16 33 13.5 33 C10.11826935 31.64730774 9.53473691 30.27734885 8 27 C7.70703125 23.44921875 7.70703125 23.44921875 7.8125 19.6875 C7.85310547 17.80611328 7.85310547 17.80611328 7.89453125 15.88671875 C7.92933594 14.93410156 7.96414062 13.98148438 8 13 C6.02 13.33 4.04 13.66 2 14 C2.0928125 15.09699219 2.185625 16.19398437 2.28125 17.32421875 C2.95970145 28.70668805 2.95970145 28.70668805 0.359375 32.2109375 C-2.60793712 34.11221527 -4.6478422 35.21337242 -8.203125 34.65234375 C-10 34 -10 34 -11 33 C-11.08669432 31.5112814 -11.10703494 30.018555 -11.09765625 28.52734375 C-11.09443359 27.62822266 -11.09121094 26.72910156 -11.08789062 25.80273438 C-11.07951172 24.85720703 -11.07113281 23.91167969 -11.0625 22.9375 C-11.05798828 21.98810547 -11.05347656 21.03871094 -11.04882812 20.06054688 C-11.0370011 17.70696935 -11.02052025 15.35351523 -11 13 C-13.31 13.33 -15.62 13.66 -18 14 C-17.6390625 14.4846875 -17.278125 14.969375 -16.90625 15.46875 C-13.36673867 20.58137748 -12.24993586 23.78518282 -13 30 C-15.44986932 32.44986932 -16.137078 32.25631311 -19.5 32.265625 C-20.386875 32.26820312 -21.27375 32.27078125 -22.1875 32.2734375 C-23.115625 32.26570313 -24.04375 32.25796875 -25 32.25 C-25.928125 32.25773437 -26.85625 32.26546875 -27.8125 32.2734375 C-29.1428125 32.26957031 -29.1428125 32.26957031 -30.5 32.265625 C-31.3146875 32.26336914 -32.129375 32.26111328 -32.96875 32.25878906 C-35 32 -35 32 -37 30 C-37.265625 28.125 -37.265625 28.125 -37.25 26 C-37.25515625 25.29875 -37.2603125 24.5975 -37.265625 23.875 C-37 22 -37 22 -35 20 C-32.875 19.375 -32.875 19.375 -31 19 C-31.433125 18.50371094 -31.86625 18.00742187 -32.3125 17.49609375 C-35.24313849 13.92098615 -36.89591149 11.80668593 -37.5 7.125 C-37 4 -37 4 -35 2 C-32.98461914 1.77294922 -32.98461914 1.77294922 -30.53515625 1.8046875 C-29.21161133 1.81435547 -29.21161133 1.81435547 -27.86132812 1.82421875 C-26.93771484 1.84097656 -26.01410156 1.85773437 -25.0625 1.875 C-24.14275391 1.88402344 -23.22300781 1.89304688 -22.27539062 1.90234375 C-20.56513357 1.91980808 -18.85491016 1.94136799 -17.14477539 1.96826172 C-10.86670782 2.06116426 -6.63742306 -0.76255184 0 0 Z " fill="#172E4E" transform="translate(157,0)"/>
<path d="M0 0 C2.2265625 0.74609375 2.2265625 0.74609375 4.3125 1.625 C5.529375 2.07875 6.74625 2.5325 8 3 C9.35134489 2.37064381 10.68404548 1.70034701 12 1 C14.32421875 0.76953125 14.32421875 0.76953125 16.6875 0.8125 C17.86892578 0.82216797 17.86892578 0.82216797 19.07421875 0.83203125 C21 1 21 1 22 2 C23.8267034 2.26013181 25.66232907 2.45923072 27.5 2.625 C28.5003125 2.72039062 29.500625 2.81578125 30.53125 2.9140625 C31.3459375 2.94242187 32.160625 2.97078125 33 3 C33.33 2.67 33.66 2.34 34 2 C37.30516934 1.74964026 40.62396041 1.81478048 43.9375 1.8125 C45.33645508 1.79413086 45.33645508 1.79413086 46.76367188 1.77539062 C48.10075195 1.77249023 48.10075195 1.77249023 49.46484375 1.76953125 C50.285896 1.76542236 51.10694824 1.76131348 51.95288086 1.75708008 C54 2 54 2 56 4 C56.265625 5.875 56.265625 5.875 56.25 8 C56.25773437 9.051875 56.25773437 9.051875 56.265625 10.125 C56 12 56 12 54 14 C53.01 14 52.02 14 51 14 C51.3609375 14.4846875 51.721875 14.969375 52.09375 15.46875 C55.63326133 20.58137748 56.75006414 23.78518282 56 30 C54 32 54 32 51.98461914 32.24291992 C50.77213501 32.23675659 50.77213501 32.23675659 49.53515625 32.23046875 C48.21161133 32.22756836 48.21161133 32.22756836 46.86132812 32.22460938 C45.4759082 32.20624023 45.4759082 32.20624023 44.0625 32.1875 C42.68288086 32.1865332 42.68288086 32.1865332 41.27539062 32.18554688 C34.42166574 32.14055525 34.42166574 32.14055525 31 31 C30.15308594 31.45632812 30.15308594 31.45632812 29.2890625 31.921875 C26.03877495 33.45272716 22.89314585 33.29043846 19.375 33.25 C18.3540625 33.26160156 18.3540625 33.26160156 17.3125 33.2734375 C12.25344122 33.25344122 12.25344122 33.25344122 10 31 C9.69324768 28.10032243 9.48826629 25.28216822 9.375 22.375 C9.31699219 21.17230469 9.31699219 21.17230469 9.2578125 19.9453125 C9.16346069 17.96392444 9.08063785 15.98199355 9 14 C6.3333581 12.66667905 4.83319697 13.32897967 2 14 C2.0928125 15.09699219 2.185625 16.19398437 2.28125 17.32421875 C2.95970145 28.70668805 2.95970145 28.70668805 0.359375 32.2109375 C-2.60793712 34.11221527 -4.6478422 35.21337242 -8.203125 34.65234375 C-10 34 -10 34 -11 33 C-11.08669432 31.5112814 -11.10703494 30.018555 -11.09765625 28.52734375 C-11.09443359 27.62822266 -11.09121094 26.72910156 -11.08789062 25.80273438 C-11.07951172 24.85720703 -11.07113281 23.91167969 -11.0625 22.9375 C-11.05798828 21.98810547 -11.05347656 21.03871094 -11.04882812 20.06054688 C-11.0370011 17.70696935 -11.02052025 15.35351523 -11 13 C-11.66 13 -12.32 13 -13 13 C-12.97679688 14.27617187 -12.95359375 15.55234375 -12.9296875 16.8671875 C-12.91093171 18.5364525 -12.89273131 20.2057238 -12.875 21.875 C-12.85824219 22.71675781 -12.84148438 23.55851562 -12.82421875 24.42578125 C-12.81777344 25.23144531 -12.81132812 26.03710938 -12.8046875 26.8671875 C-12.79421387 27.61081543 -12.78374023 28.35444336 -12.77294922 29.12060547 C-13 31 -13 31 -15 33 C-17.49023437 33.25878906 -17.49023437 33.25878906 -20.59375 33.265625 C-21.70621094 33.26820312 -22.81867187 33.27078125 -23.96484375 33.2734375 C-25.13144531 33.26570313 -26.29804688 33.25796875 -27.5 33.25 C-28.66660156 33.25773437 -29.83320313 33.26546875 -31.03515625 33.2734375 C-32.14761719 33.27085938 -33.26007812 33.26828125 -34.40625 33.265625 C-35.43041016 33.26336914 -36.45457031 33.26111328 -37.50976562 33.25878906 C-40 33 -40 33 -42 31 C-42.265625 28.25 -42.265625 28.25 -42.25 25 C-42.25515625 23.9275 -42.2603125 22.855 -42.265625 21.75 C-42 19 -42 19 -40 17 C-37.31160615 16.73008094 -34.70858064 16.91262643 -32 17 C-31.67 17.99 -31.34 18.98 -31 20 C-29.35 20 -27.7 20 -26 20 C-26.02320313 18.79601562 -26.04640625 17.59203125 -26.0703125 16.3515625 C-26.08906863 14.77604785 -26.10726899 13.20052652 -26.125 11.625 C-26.14175781 10.8309375 -26.15851562 10.036875 -26.17578125 9.21875 C-26.19335473 7.14507985 -26.10335168 5.07116759 -26 3 C-24 1 -24 1 -21.94140625 0.76953125 C-21.15636719 0.78371094 -20.37132813 0.79789062 -19.5625 0.8125 C-18.38880859 0.82216797 -18.38880859 0.82216797 -17.19140625 0.83203125 C-15 1 -15 1 -12 2 C-7.94265803 -0.70489464 -4.76773264 -0.54774922 0 0 Z M33 13 C33 15.64 33 18.28 33 21 C34.98 20.67 36.96 20.34 39 20 C37.19587357 16.73539027 36.16605307 15.11070205 33 13 Z " fill="#112555" transform="translate(42,0)"/>
<path d="M0 0 C6.91415313 1.91415313 6.91415313 1.91415313 9 4 C9.3125 7.375 9.3125 7.375 9 11 C7.1875 12.9375 7.1875 12.9375 5 14 C4.01 14 3.02 14 2 14 C2.0928125 15.09699219 2.185625 16.19398437 2.28125 17.32421875 C2.95970145 28.70668805 2.95970145 28.70668805 0.359375 32.2109375 C-2.60793712 34.11221527 -4.6478422 35.21337242 -8.203125 34.65234375 C-10 34 -10 34 -11 33 C-11.08669432 31.5112814 -11.10703494 30.018555 -11.09765625 28.52734375 C-11.09443359 27.62822266 -11.09121094 26.72910156 -11.08789062 25.80273438 C-11.07532227 24.38444336 -11.07532227 24.38444336 -11.0625 22.9375 C-11.05798828 21.98810547 -11.05347656 21.03871094 -11.04882812 20.06054688 C-11.0370011 17.70696935 -11.02052025 15.35351523 -11 13 C-12.98 13.66 -14.96 14.32 -17 15 C-17 16.65 -17 18.3 -17 20 C-15.68 20.66 -14.36 21.32 -13 22 C-12.94600264 23.45792884 -12.90720823 24.91642712 -12.875 26.375 C-12.85179687 27.18710937 -12.82859375 27.99921875 -12.8046875 28.8359375 C-13 31 -13 31 -15 33 C-17.66211206 33.14626989 -20.21728648 33.18615093 -22.875 33.125 C-23.59558594 33.11597656 -24.31617188 33.10695312 -25.05859375 33.09765625 C-27.03916544 33.07212402 -29.01959914 33.0364491 -31 33 C-32.32 33 -33.64 33 -35 33 C-37.66666667 33 -40.33333333 33 -43 33 C-44.32 30.69 -45.64 28.38 -47 26 C-47.66 28.31 -48.32 30.62 -49 33 C-55.0546875 33.1953125 -55.0546875 33.1953125 -57 33 C-60.30986474 29.69013526 -59.40012055 24.70736864 -59.47851562 20.20898438 C-59.63397888 15.80671995 -59.89207058 13.9943051 -63 11 C-63.63847487 5.89220104 -63.63847487 5.89220104 -61.80078125 3.32421875 C-59.37182453 1.53806619 -57.79277437 1.69638541 -54.8125 1.8125 C-53.91144531 1.83957031 -53.01039063 1.86664063 -52.08203125 1.89453125 C-51.05142578 1.94673828 -51.05142578 1.94673828 -50 2 C-49.01 3.98 -48.02 5.96 -47 8 C-46.525625 7.01 -46.05125 6.02 -45.5625 5 C-43 2 -43 2 -40.8359375 1.56640625 C-37.25934136 1.56058117 -34.40872427 1.86375858 -31 3 C-30.443125 2.690625 -29.88625 2.38125 -29.3125 2.0625 C-24.77831216 -0.02077549 -20.28393483 0.53086997 -15.75 2.1875 C-14.38875 2.5896875 -14.38875 2.5896875 -13 3 C-12.401875 2.54625 -11.80375 2.0925 -11.1875 1.625 C-7.70958735 -0.95859225 -4.18598461 -0.526668 0 0 Z M-34 9 C-36.12093671 12.47833621 -37.01707801 14.50473783 -36.875 18.625 C-36.0376996 21.85458726 -35.2314291 23.57453359 -33 26 C-32.566875 24.7934375 -32.566875 24.7934375 -32.125 23.5625 C-31 21 -31 21 -29 20 C-28.74969023 17.58380177 -28.74969023 17.58380177 -29 15 C-29.99 14.34 -30.98 13.68 -32 13 C-33.1875 10.875 -33.1875 10.875 -34 9 Z " fill="#263B64" transform="translate(372,0)"/>
<path d="M0 0 C5.88107639 0.21701389 5.88107639 0.21701389 6.9921875 1.328125 C9.80041949 1.61210352 12.60865385 1.77659165 15.42578125 1.94921875 C17.9921875 2.328125 17.9921875 2.328125 19.9921875 4.328125 C20.58145551 8.24127097 20.54805335 12.18845606 20.6171875 16.140625 C20.67519531 17.23439453 20.73320312 18.32816406 20.79296875 19.45507812 C20.91692694 27.27874677 20.91692694 27.27874677 18.30761719 30.23974609 C15.34772102 32.2265163 13.34193707 33.56385796 9.72900391 32.93286133 C9.15585449 32.73329834 8.58270508 32.53373535 7.9921875 32.328125 C7.6621875 31.008125 7.3321875 29.688125 6.9921875 28.328125 C6.0846875 28.84375 5.1771875 29.359375 4.2421875 29.890625 C0.89158048 31.37262426 0.23759698 31.55914239 -3.0078125 30.328125 C-3.9978125 30.328125 -4.9878125 30.328125 -6.0078125 30.328125 C-10.67447917 30.328125 -15.34114583 30.328125 -20.0078125 30.328125 C-19.6778125 29.668125 -19.3478125 29.008125 -19.0078125 28.328125 C-15.3778125 28.328125 -11.7478125 28.328125 -8.0078125 28.328125 C-8.0078125 26.348125 -8.0078125 24.368125 -8.0078125 22.328125 C-10.9778125 22.328125 -13.9478125 22.328125 -17.0078125 22.328125 C-17.0078125 21.338125 -17.0078125 20.348125 -17.0078125 19.328125 C-14.0378125 19.328125 -11.0678125 19.328125 -8.0078125 19.328125 C-8.0078125 17.348125 -8.0078125 15.368125 -8.0078125 13.328125 C-10.9778125 13.328125 -13.9478125 13.328125 -17.0078125 13.328125 C-17.0078125 12.338125 -17.0078125 11.348125 -17.0078125 10.328125 C-14.0378125 10.328125 -11.0678125 10.328125 -8.0078125 10.328125 C-8.0078125 8.348125 -8.0078125 6.368125 -8.0078125 4.328125 C-9.9878125 4.328125 -11.9678125 4.328125 -14.0078125 4.328125 C-14.0078125 3.998125 -14.0078125 3.668125 -14.0078125 3.328125 C-13.39292969 3.36292969 -12.77804688 3.39773438 -12.14453125 3.43359375 C-10.93216797 3.47419922 -10.93216797 3.47419922 -9.6953125 3.515625 C-8.89480469 3.55042969 -8.09429687 3.58523438 -7.26953125 3.62109375 C-3.91242767 3.18623577 -3.24802105 0.530805 0 0 Z " fill="#193249" transform="translate(267.0078125,1.671875)"/>
<path d="M0 0 C6.91415313 1.91415313 6.91415313 1.91415313 9 4 C9.3125 7.375 9.3125 7.375 9 11 C7.1875 12.9375 7.1875 12.9375 5 14 C4.01 14 3.02 14 2 14 C2.0928125 15.09699219 2.185625 16.19398437 2.28125 17.32421875 C2.95970145 28.70668805 2.95970145 28.70668805 0.359375 32.2109375 C-2.60793712 34.11221527 -4.6478422 35.21337242 -8.203125 34.65234375 C-10 34 -10 34 -11 33 C-11.08669432 31.5112814 -11.10703494 30.018555 -11.09765625 28.52734375 C-11.09443359 27.62822266 -11.09121094 26.72910156 -11.08789062 25.80273438 C-11.07951172 24.85720703 -11.07113281 23.91167969 -11.0625 22.9375 C-11.05798828 21.98810547 -11.05347656 21.03871094 -11.04882812 20.06054688 C-11.0370011 17.70696935 -11.02052025 15.35351523 -11 13 C-12.98 13.66 -14.96 14.32 -17 15 C-17 16.65 -17 18.3 -17 20 C-15.68 20.66 -14.36 21.32 -13 22 C-12.94600264 23.45792884 -12.90720823 24.91642712 -12.875 26.375 C-12.85179687 27.18710937 -12.82859375 27.99921875 -12.8046875 28.8359375 C-13 31 -13 31 -15 33 C-17.74485593 33.14507695 -20.38480543 33.18652423 -23.125 33.125 C-23.87910156 33.11597656 -24.63320313 33.10695312 -25.41015625 33.09765625 C-27.27357254 33.0740687 -29.13682593 33.03819719 -31 33 C-31 32.67 -31 32.34 -31 32 C-26.38 31.67 -21.76 31.34 -17 31 C-21.29 30.67 -25.58 30.34 -30 30 C-30 29.67 -30 29.34 -30 29 C-25.38 29 -20.76 29 -16 29 C-16 27.02 -16 25.04 -16 23 C-17.32 23 -18.64 23 -20 23 C-20 19.7 -20 16.4 -20 13 C-23.3 12.67 -26.6 12.34 -30 12 C-30 11.67 -30 11.34 -30 11 C-25.38 11 -20.76 11 -16 11 C-16 9.35 -16 7.7 -16 6 C-17.32 6 -18.64 6 -20 6 C-20 5.34 -20 4.68 -20 4 C-21.98 4 -23.96 4 -26 4 C-26 4.66 -26 5.32 -26 6 C-27.9375 5.625 -27.9375 5.625 -30 5 C-30.33 4.34 -30.66 3.68 -31 3 C-27.26042392 0.50694928 -23.33593822 0.53962046 -19 1 C-17.39125 1.5878125 -17.39125 1.5878125 -15.75 2.1875 C-14.8425 2.455625 -13.935 2.72375 -13 3 C-12.1028125 2.319375 -12.1028125 2.319375 -11.1875 1.625 C-7.70958735 -0.95859225 -4.18598461 -0.526668 0 0 Z " fill="#173150" transform="translate(372,0)"/>
<path d="M0 0 C1.21248413 0.01571045 1.21248413 0.01571045 2.44946289 0.03173828 C3.77300781 0.04140625 3.77300781 0.04140625 5.12329102 0.05126953 C6.0469043 0.06802734 6.97051758 0.08478516 7.92211914 0.10205078 C8.84186523 0.11107422 9.76161133 0.12009766 10.70922852 0.12939453 C12.41948557 0.14685886 14.12970898 0.16841877 15.83984375 0.1953125 C17.55461377 0.22068758 19.26966138 0.22705078 20.98461914 0.22705078 C21.64461914 0.55705078 22.30461914 0.88705078 22.98461914 1.22705078 C22.32461914 1.88705078 21.66461914 2.54705078 20.98461914 3.22705078 C20.81961914 4.38205078 20.65461914 5.53705078 20.48461914 6.72705078 C19.98461914 10.22705078 19.98461914 10.22705078 17.98461914 12.22705078 C16.99461914 12.22705078 16.00461914 12.22705078 14.98461914 12.22705078 C15.34555664 12.71173828 15.70649414 13.19642578 16.07836914 13.69580078 C19.61788047 18.80842826 20.73468328 22.0122336 19.98461914 28.22705078 C17.53474983 30.6769201 16.84754114 30.48336389 13.48461914 30.49267578 C12.59774414 30.49525391 11.71086914 30.49783203 10.79711914 30.50048828 C9.86899414 30.49275391 8.94086914 30.48501953 7.98461914 30.47705078 C6.59243164 30.48865234 6.59243164 30.48865234 5.17211914 30.50048828 C3.84180664 30.49662109 3.84180664 30.49662109 2.48461914 30.49267578 C1.66993164 30.49041992 0.85524414 30.48816406 0.01586914 30.48583984 C-2.01538086 30.22705078 -2.01538086 30.22705078 -4.01538086 28.22705078 C-4.28100586 26.35205078 -4.28100586 26.35205078 -4.26538086 24.22705078 C-4.27053711 23.52580078 -4.27569336 22.82455078 -4.28100586 22.10205078 C-4.01538086 20.22705078 -4.01538086 20.22705078 -2.01538086 18.22705078 C0.10961914 17.60205078 0.10961914 17.60205078 1.98461914 17.22705078 C1.55149414 16.73076172 1.11836914 16.23447266 0.67211914 15.72314453 C-2.25851935 12.14803693 -3.91129235 10.03373671 -4.51538086 5.35205078 C-3.97481874 1.97353752 -3.59824956 0.40537518 0 0 Z " fill="#203278" transform="translate(124.015380859375,1.77294921875)"/>
<path d="M0 0 C0.80308594 0.01417969 1.60617188 0.02835937 2.43359375 0.04296875 C3.64208984 0.05263672 3.64208984 0.05263672 4.875 0.0625 C6.87109375 0.23046875 6.87109375 0.23046875 7.87109375 1.23046875 C7.97121776 3.43697531 8.00190555 5.64669261 8.00390625 7.85546875 C8.00534134 8.84861084 8.00534134 8.84861084 8.00680542 9.86181641 C8.00748701 11.26399836 8.00563417 12.66618345 8.00146484 14.06835938 C7.99611621 16.22142588 8.00141045 18.37428377 8.0078125 20.52734375 C8.00715171 21.88671921 8.00587054 23.24609455 8.00390625 24.60546875 C8.00277832 25.85070312 8.00165039 27.0959375 8.00048828 28.37890625 C7.87109375 31.23046875 7.87109375 31.23046875 6.87109375 32.23046875 C2.73147092 32.48348114 -1.41996621 32.41569424 -5.56640625 32.41796875 C-6.73751953 32.43021484 -7.90863281 32.44246094 -9.11523438 32.45507812 C-10.23220703 32.45701172 -11.34917969 32.45894531 -12.5 32.4609375 C-13.5305249 32.46504639 -14.5610498 32.46915527 -15.62280273 32.47338867 C-18.12890625 32.23046875 -18.12890625 32.23046875 -20.12890625 30.23046875 C-20.39453125 27.48046875 -20.39453125 27.48046875 -20.37890625 24.23046875 C-20.3840625 23.15796875 -20.38921875 22.08546875 -20.39453125 20.98046875 C-20.12890625 18.23046875 -20.12890625 18.23046875 -18.12890625 16.23046875 C-15.4405124 15.96054969 -12.83748689 16.14309518 -10.12890625 16.23046875 C-9.79890625 17.22046875 -9.46890625 18.21046875 -9.12890625 19.23046875 C-7.47890625 19.23046875 -5.82890625 19.23046875 -4.12890625 19.23046875 C-4.15210938 18.02648437 -4.1753125 16.8225 -4.19921875 15.58203125 C-4.21797488 14.0065166 -4.23617524 12.43099527 -4.25390625 10.85546875 C-4.27066406 10.06140625 -4.28742187 9.26734375 -4.3046875 8.44921875 C-4.32226098 6.3755486 -4.23225793 4.30163634 -4.12890625 2.23046875 C-2.12890625 0.23046875 -2.12890625 0.23046875 0 0 Z " fill="#142B44" transform="translate(20.12890625,0.76953125)"/>
<path d="M0 0 C4.64884334 0.71520667 8.99657382 1.97704257 12.38671875 5.3671875 C12.35384292 8.09588157 11.82274104 10.6638493 11.38671875 13.3671875 C9.07671875 13.6971875 6.76671875 14.0271875 4.38671875 14.3671875 C4.47953125 15.46417969 4.57234375 16.56117187 4.66796875 17.69140625 C5.3464202 29.07387555 5.3464202 29.07387555 2.74609375 32.578125 C-0.22121837 34.47940277 -2.26112345 35.58055992 -5.81640625 35.01953125 C-7.61328125 34.3671875 -7.61328125 34.3671875 -8.61328125 33.3671875 C-8.69997557 31.8784689 -8.72031619 30.3857425 -8.7109375 28.89453125 C-8.70771484 27.99541016 -8.70449219 27.09628906 -8.70117188 26.16992188 C-8.69279297 25.22439453 -8.68441406 24.27886719 -8.67578125 23.3046875 C-8.67126953 22.35529297 -8.66675781 21.40589844 -8.66210938 20.42773438 C-8.65028235 18.07415685 -8.6338015 15.72070273 -8.61328125 13.3671875 C-9.27328125 13.3671875 -9.93328125 13.3671875 -10.61328125 13.3671875 C-10.9102026 8.98759762 -11.08270845 6.34686165 -9.17578125 2.3671875 C-5.93843138 -0.15952459 -4.01542577 -0.22566029 0 0 Z " fill="#172F4A" transform="translate(154.61328125,-0.3671875)"/>
<path d="M0 0 C0.1953125 6.0546875 0.1953125 6.0546875 0 8 C-0.66 8.66 -1.32 9.32 -2 10 C-2.99 10 -3.98 10 -5 10 C-4.6390625 10.4846875 -4.278125 10.969375 -3.90625 11.46875 C-0.34723177 16.60955411 0.55618754 19.7706996 0 26 C-0.66 26.33 -1.32 26.66 -2 27 C-2.66 26.34 -3.32 25.68 -4 25 C-6.89967757 24.69324768 -9.71783178 24.48826629 -12.625 24.375 C-13.42679687 24.33632813 -14.22859375 24.29765625 -15.0546875 24.2578125 C-17.03607556 24.16346069 -19.01800645 24.08063785 -21 24 C-21 22.35 -21 20.7 -21 19 C-18.03 19 -15.06 19 -12 19 C-15.03616602 12.95892214 -15.03616602 12.95892214 -19.3125 7.8125 C-21 6 -21 6 -21.10546875 2.88671875 C-21.07066406 1.93410156 -21.03585938 0.98148437 -21 0 C-18.06281233 -0.19461488 -15.12550068 -0.38097593 -12.1875 -0.5625 C-11.35412109 -0.61857422 -10.52074219 -0.67464844 -9.66210938 -0.73242188 C-8.85966797 -0.78076172 -8.05722656 -0.82910156 -7.23046875 -0.87890625 C-6.49207764 -0.9260376 -5.75368652 -0.97316895 -4.99291992 -1.02172852 C-3 -1 -3 -1 0 0 Z " fill="#15266D" transform="translate(98,4)"/>
<path d="M0 0 C1.65 0 3.3 0 5 0 C5 0.66 5 1.32 5 2 C8.96 2 12.92 2 17 2 C17 8.93 17 15.86 17 23 C14.69 23.99 12.38 24.98 10 26 C10 22.7 10 19.4 10 16 C8.35 16 6.7 16 5 16 C5 17.65 5 19.3 5 21 C3.02 21.99 1.04 22.98 -1 24 C-1.33 18.39 -1.66 12.78 -2 7 C-2.33 7 -2.66 7 -3 7 C-3 5.35 -3 3.7 -3 2 C-2.01 2 -1.02 2 0 2 C0 1.34 0 0.68 0 0 Z " fill="#FFF2FF" transform="translate(267,5)"/>
<path d="M0 0 C1.65 0 3.3 0 5 0 C5 0.66 5 1.32 5 2 C8.96 2 12.92 2 17 2 C17 8.93 17 15.86 17 23 C14.69 23.99 12.38 24.98 10 26 C10 22.7 10 19.4 10 16 C8.35 16 6.7 16 5 16 C5 17.65 5 19.3 5 21 C3.02 21.99 1.04 22.98 -1 24 C-1.33 18.39 -1.66 12.78 -2 7 C-2.33 7 -2.66 7 -3 7 C-3 5.35 -3 3.7 -3 2 C-2.01 2 -1.02 2 0 2 C0 1.34 0 0.68 0 0 Z " fill="#FFF2FF" transform="translate(198,5)"/>
<path d="M0 0 C1.65 0 3.3 0 5 0 C5 0.66 5 1.32 5 2 C9.29 2 13.58 2 18 2 C18 3.65 18 5.3 18 7 C17.01 7 16.02 7 15 7 C15 13.27 15 19.54 15 26 C13.02 26 11.04 26 9 26 C9 22.7 9 19.4 9 16 C8.01 16 7.02 16 6 16 C6 14.02 6 12.04 6 10 C6.99 10 7.98 10 9 10 C9 9.01 9 8.02 9 7 C7.68 7 6.36 7 5 7 C5.04640625 7.96421875 5.0928125 8.9284375 5.140625 9.921875 C5.17671875 11.18515625 5.2128125 12.4484375 5.25 13.75 C5.29640625 15.00296875 5.3428125 16.2559375 5.390625 17.546875 C5 21 5 21 3.109375 23.453125 C1 25 1 25 -1 25 C-1.66 23.35 -2.32 21.7 -3 20 C-2.67 19.67 -2.34 19.34 -2 19 C-1.92755947 16.98035801 -1.91622812 14.95832876 -1.9375 12.9375 C-1.94652344 11.83277344 -1.95554688 10.72804688 -1.96484375 9.58984375 C-1.97644531 8.73519531 -1.98804688 7.88054688 -2 7 C-2.33 7 -2.66 7 -3 7 C-3 5.35 -3 3.7 -3 2 C-2.01 2 -1.02 2 0 2 C0 1.34 0 0.68 0 0 Z " fill="#FFF2FF" transform="translate(171,4)"/>
<path d="M0 0 C2.97 0 5.94 0 9 0 C9 2.64 9 5.28 9 8 C10.32 8 11.64 8 13 8 C13.28875 7.05125 13.5775 6.1025 13.875 5.125 C15 2 15 2 17 0 C20.625 -0.125 20.625 -0.125 24 0 C22.20930233 5.62790698 22.20930233 5.62790698 20.875 8 C19.63026365 10.84511166 19.69180453 12.91804527 20 16 C20.93704257 18.0302589 21.92925408 20.03696582 23 22 C23 22.66 23 23.32 23 24 C21.02 24 19.04 24 17 24 C13 17.375 13 17.375 13 14 C11.68 14 10.36 14 9 14 C9 17.3 9 20.6 9 24 C7.02 24 5.04 24 3 24 C3 17.73 3 11.46 3 5 C2.01 5 1.02 5 0 5 C0 3.35 0 1.7 0 0 Z " fill="#FFF2FF" transform="translate(313,5)"/>
<path d="M0 0 C0.90105469 0.02707031 1.80210937 0.05414063 2.73046875 0.08203125 C3.76107422 0.13423828 3.76107422 0.13423828 4.8125 0.1875 C5.8025 2.1675 6.7925 4.1475 7.8125 6.1875 C8.286875 5.1975 8.76125 4.2075 9.25 3.1875 C11.8125 0.1875 11.8125 0.1875 13.9765625 -0.31640625 C19.89736627 -0.46105129 19.89736627 -0.46105129 22.609375 1.4609375 C23.8125 3.1875 23.8125 3.1875 23.88671875 5.23046875 C23.52864583 7.21614583 23.17057292 9.20182292 22.8125 11.1875 C22.1525 10.5275 21.4925 9.8675 20.8125 9.1875 C19.8225 10.5075 18.8325 11.8275 17.8125 13.1875 C17.125 11.5625 17.125 11.5625 16.8125 9.1875 C18.25 5.9375 18.25 5.9375 19.8125 3.1875 C16.44397485 3.1309891 16.44397485 3.1309891 12.8125 4.1875 C10.9580908 6.4106534 10.02690756 8.51580337 8.8125 11.1875 C7.4925 11.1875 6.1725 11.1875 4.8125 11.1875 C4.8125 8.5475 4.8125 5.9075 4.8125 3.1875 C1.8425 3.1875 -1.1275 3.1875 -4.1875 3.1875 C-4.1875 4.8375 -4.1875 6.4875 -4.1875 8.1875 C-3.1975 8.1875 -2.2075 8.1875 -1.1875 8.1875 C-1.1875 14.4575 -1.1875 20.7275 -1.1875 27.1875 C0.7925 27.1875 2.7725 27.1875 4.8125 27.1875 C4.8125 23.8875 4.8125 20.5875 4.8125 17.1875 C6.1325 17.1875 7.4525 17.1875 8.8125 17.1875 C9.03164063 17.82558594 9.25078125 18.46367187 9.4765625 19.12109375 C10.4396277 21.63054412 11.39053731 23.90374175 12.8125 26.1875 C15.928525 27.40540719 15.928525 27.40540719 18.8125 27.1875 C18.1525 27.8475 17.4925 28.5075 16.8125 29.1875 C17.8025 29.8475 18.7925 30.5075 19.8125 31.1875 C17.1725 31.1875 14.5325 31.1875 11.8125 31.1875 C10.4925 28.8775 9.1725 26.5675 7.8125 24.1875 C7.1525 26.4975 6.4925 28.8075 5.8125 31.1875 C-0.2421875 31.3828125 -0.2421875 31.3828125 -2.1875 31.1875 C-5.49736474 27.87763526 -4.58762055 22.89486864 -4.66601562 18.39648438 C-4.82147888 13.99421995 -5.07957058 12.1818051 -8.1875 9.1875 C-8.82597487 4.07970104 -8.82597487 4.07970104 -6.98828125 1.51171875 C-4.55932453 -0.27443381 -2.98027437 -0.11611459 0 0 Z " fill="#1C354D" transform="translate(317.1875,1.8125)"/>
<path d="M0 0 C1.98 0 3.96 0 6 0 C6 0.66 6 1.32 6 2 C9.3 2 12.6 2 16 2 C16.10775984 5.27170847 16.18719451 8.53988546 16.25 11.8125 C16.30027344 13.2056543 16.30027344 13.2056543 16.3515625 14.62695312 C16.36445312 15.51962891 16.37734375 16.41230469 16.390625 17.33203125 C16.41157227 18.15421143 16.43251953 18.9763916 16.45410156 19.82348633 C16 22 16 22 14.17773438 23.7734375 C11.1254823 25.49255347 8.72283001 25.2916849 5.25 25.1875 C4.07953125 25.16042969 2.9090625 25.13335938 1.703125 25.10546875 C0.81109375 25.07066406 -0.0809375 25.03585938 -1 25 C-1 23.02 -1 21.04 -1 19 C2.63 19 6.26 19 10 19 C10 15.04 10 11.08 10 7 C8.35 7 6.7 7 5 7 C5 10.3 5 13.6 5 17 C3.02 17 1.04 17 -1 17 C-1.33 13.7 -1.66 10.4 -2 7 C-2.33 7 -2.66 7 -3 7 C-3 5.35 -3 3.7 -3 2 C-2.01 2 -1.02 2 0 2 C0 1.34 0 0.68 0 0 Z " fill="#FEF2FB" transform="translate(56,4)"/>
<path d="M0 0 C1.65 0 3.3 0 5 0 C5 0.66 5 1.32 5 2 C7.97 2 10.94 2 14 2 C14 3.65 14 5.3 14 7 C11.03 7 8.06 7 5 7 C5 7.99 5 8.98 5 10 C7.97 10 10.94 10 14 10 C14 11.98 14 13.96 14 16 C11.03 16 8.06 16 5 16 C5 16.99 5 17.98 5 19 C7.97 19 10.94 19 14 19 C14 20.65 14 22.3 14 24 C12.06318839 24.08107583 10.1254066 24.13922475 8.1875 24.1875 C7.10855469 24.22230469 6.02960938 24.25710937 4.91796875 24.29296875 C2 24 2 24 0.15625 22.9375 C-1.6119972 19.97449117 -1.53084258 17.22763176 -1.6875 13.8125 C-1.78611328 11.90404297 -1.78611328 11.90404297 -1.88671875 9.95703125 C-1.92410156 8.98121094 -1.96148437 8.00539063 -2 7 C-2.33 7 -2.66 7 -3 7 C-3 5.35 -3 3.7 -3 2 C-2.01 2 -1.02 2 0 2 C0 1.34 0 0.68 0 0 Z " fill="#FFF2FF" transform="translate(245,5)"/>
<path d="M0 0 C2.31 0 4.62 0 7 0 C7 8.25 7 16.5 7 25 C-0.59 25 -8.18 25 -16 25 C-16 22.03 -16 19.06 -16 16 C-14.35 16 -12.7 16 -11 16 C-10.67 17.32 -10.34 18.64 -10 20 C-6.7 20 -3.4 20 0 20 C0 13.4 0 6.8 0 0 Z " fill="#73F2A9" transform="translate(19,4)"/>
<path d="M0 0 C5.88107639 0.31467014 5.88107639 0.31467014 6.9921875 1.42578125 C9.00813332 1.66005903 11.0306615 1.83914249 13.0546875 1.98828125 C14.15941406 2.07207031 15.26414063 2.15585937 16.40234375 2.2421875 C17.25699219 2.30277344 18.11164063 2.36335937 18.9921875 2.42578125 C18.6621875 3.41578125 18.3321875 4.40578125 17.9921875 5.42578125 C13.7021875 5.42578125 9.4121875 5.42578125 4.9921875 5.42578125 C4.9921875 4.76578125 4.9921875 4.10578125 4.9921875 3.42578125 C3.3421875 3.42578125 1.6921875 3.42578125 -0.0078125 3.42578125 C-0.0078125 4.08578125 -0.0078125 4.74578125 -0.0078125 5.42578125 C-0.9978125 5.42578125 -1.9878125 5.42578125 -3.0078125 5.42578125 C-2.68167969 5.94914063 -2.35554687 6.4725 -2.01953125 7.01171875 C-0.70931727 10.13802084 -0.77834886 12.67080054 -0.8203125 16.05078125 C-0.82675781 17.19804687 -0.83320313 18.3453125 -0.83984375 19.52734375 C-1.0078125 22.42578125 -1.0078125 22.42578125 -2.0078125 24.42578125 C-1.60842483 26.5239934 -1.60842483 26.5239934 -1.0078125 28.42578125 C1.59211113 26.8986078 1.59211113 26.8986078 3.9921875 24.42578125 C4.80989128 20.93970056 4.80989128 20.93970056 4.8046875 17.17578125 C4.85238281 15.9125 4.90007812 14.64921875 4.94921875 13.34765625 C4.97048828 11.90132812 4.97048828 11.90132812 4.9921875 10.42578125 C6.3121875 10.42578125 7.6321875 10.42578125 8.9921875 10.42578125 C8.9921875 11.41578125 8.9921875 12.40578125 8.9921875 13.42578125 C8.0021875 13.42578125 7.0121875 13.42578125 5.9921875 13.42578125 C5.9921875 15.40578125 5.9921875 17.38578125 5.9921875 19.42578125 C6.9821875 19.42578125 7.9721875 19.42578125 8.9921875 19.42578125 C8.9921875 23.05578125 8.9921875 26.68578125 8.9921875 30.42578125 C10.6421875 30.42578125 12.2921875 30.42578125 13.9921875 30.42578125 C14.3221875 31.08578125 14.6521875 31.74578125 14.9921875 32.42578125 C13.7134375 32.48765625 12.4346875 32.54953125 11.1171875 32.61328125 C10.03824219 32.66548828 10.03824219 32.66548828 8.9375 32.71875 C8.29554688 32.62207031 7.65359375 32.52539062 6.9921875 32.42578125 C6.3321875 31.43578125 5.6721875 30.44578125 4.9921875 29.42578125 C4.6003125 29.94140625 4.2084375 30.45703125 3.8046875 30.98828125 C1.9921875 32.42578125 1.9921875 32.42578125 -0.5078125 32.42578125 C-3.0078125 31.42578125 -3.0078125 31.42578125 -4.671875 29.5546875 C-6.69382725 24.81906248 -6.1867574 20.4345359 -5.8828125 15.36328125 C-5.84671875 14.37005859 -5.810625 13.37683594 -5.7734375 12.35351562 C-5.1976135 1.10221765 -5.1976135 1.10221765 0 0 Z " fill="#172A64" transform="translate(171.0078125,0.57421875)"/>
<path d="M0 0 C0.89267578 0.00644531 1.78535156 0.01289063 2.70507812 0.01953125 C4.09823242 0.04466797 4.09823242 0.04466797 5.51953125 0.0703125 C6.45990234 0.07933594 7.40027344 0.08835938 8.36914062 0.09765625 C10.69036093 0.12122194 13.01106769 0.15412134 15.33203125 0.1953125 C15.00203125 0.8553125 14.67203125 1.5153125 14.33203125 2.1953125 C8.39203125 2.1953125 2.45203125 2.1953125 -3.66796875 2.1953125 C-3.66796875 4.1753125 -3.66796875 6.1553125 -3.66796875 8.1953125 C2.27203125 8.1953125 8.21203125 8.1953125 14.33203125 8.1953125 C14.33203125 8.5253125 14.33203125 8.8553125 14.33203125 9.1953125 C9.38203125 9.5253125 4.43203125 9.8553125 -0.66796875 10.1953125 C0.65203125 11.8453125 1.97203125 13.4953125 3.33203125 15.1953125 C4.58203125 18.5078125 4.58203125 18.5078125 5.33203125 21.1953125 C2.36203125 21.1953125 -0.60796875 21.1953125 -3.66796875 21.1953125 C-3.66796875 22.8453125 -3.66796875 24.4953125 -3.66796875 26.1953125 C2.27203125 26.1953125 8.21203125 26.1953125 14.33203125 26.1953125 C14.66203125 27.5153125 14.99203125 28.8353125 15.33203125 30.1953125 C12.06136559 30.28238142 8.7909976 30.33572491 5.51953125 30.3828125 C4.59076172 30.40794922 3.66199219 30.43308594 2.70507812 30.45898438 C1.36606445 30.47348633 1.36606445 30.47348633 0 30.48828125 C-0.82218018 30.5039917 -1.64436035 30.51970215 -2.49145508 30.53588867 C-4.66796875 30.1953125 -4.66796875 30.1953125 -6.43481445 29.03271484 C-8.15817833 26.46489926 -8.05618592 24.58144335 -8.06640625 21.50390625 C-8.07027344 20.39466797 -8.07414062 19.28542969 -8.078125 18.14257812 C-8.06652344 16.98435547 -8.05492188 15.82613281 -8.04296875 14.6328125 C-8.05457031 13.47072266 -8.06617187 12.30863281 -8.078125 11.11132812 C-8.07425781 10.00337891 -8.07039063 8.89542969 -8.06640625 7.75390625 C-8.06302246 6.73611084 -8.05963867 5.71831543 -8.05615234 4.66967773 C-7.92805176 3.85313721 -7.79995117 3.03659668 -7.66796875 2.1953125 C-4.46390413 0.05926942 -3.67196128 -0.04677658 0 0 Z M-5.66796875 11.1953125 C-5.66796875 13.8353125 -5.66796875 16.4753125 -5.66796875 19.1953125 C-3.68796875 18.8653125 -1.70796875 18.5353125 0.33203125 18.1953125 C-1.47209518 14.93070277 -2.50191568 13.30601455 -5.66796875 11.1953125 Z " fill="#10253C" transform="translate(80.66796875,1.8046875)"/>
<path d="M0 0 C1.98 0 3.96 0 6 0 C6 0.66 6 1.32 6 2 C8.31 2 10.62 2 13 2 C13 3.65 13 5.3 13 7 C10.69 7 8.38 7 6 7 C6 12.94 6 18.88 6 25 C3.69 25.99 1.38 26.98 -1 28 C-1 21.07 -1 14.14 -1 7 C-1.99 7 -2.98 7 -4 7 C-4 5.35 -4 3.7 -4 2 C-2.68 2 -1.36 2 0 2 C0 1.34 0 0.68 0 0 Z " fill="#FFF2FF" transform="translate(365,3)"/>
<path d="M0 0 C1.98 0 3.96 0 6 0 C6 0.66 6 1.32 6 2 C8.31 2 10.62 2 13 2 C13 3.65 13 5.3 13 7 C10.69 7 8.38 7 6 7 C6 12.94 6 18.88 6 25 C3.69 25.99 1.38 26.98 -1 28 C-1 21.07 -1 14.14 -1 7 C-1.99 7 -2.98 7 -4 7 C-4 5.35 -4 3.7 -4 2 C-2.68 2 -1.36 2 0 2 C0 1.34 0 0.68 0 0 Z " fill="#FFF2FF" transform="translate(224,3)"/>
<path d="M0 0 C1.98 0 3.96 0 6 0 C6 0.66 6 1.32 6 2 C8.31 2 10.62 2 13 2 C13 3.65 13 5.3 13 7 C10.69 7 8.38 7 6 7 C6 12.94 6 18.88 6 25 C3.69 25.99 1.38 26.98 -1 28 C-1 21.07 -1 14.14 -1 7 C-1.99 7 -2.98 7 -4 7 C-4 5.35 -4 3.7 -4 2 C-2.68 2 -1.36 2 0 2 C0 1.34 0 0.68 0 0 Z " fill="#FFF2FF" transform="translate(150,3)"/>
<path d="M0 0 C1.98 0 3.96 0 6 0 C6 0.66 6 1.32 6 2 C8.31 2 10.62 2 13 2 C13 3.65 13 5.3 13 7 C10.69 7 8.38 7 6 7 C6 12.94 6 18.88 6 25 C3.69 25.99 1.38 26.98 -1 28 C-1 21.07 -1 14.14 -1 7 C-1.99 7 -2.98 7 -4 7 C-4 5.35 -4 3.7 -4 2 C-2.68 2 -1.36 2 0 2 C0 1.34 0 0.68 0 0 Z " fill="#FFF2FF" transform="translate(35,3)"/>
<path d="M0 0 C0.99 0 1.98 0 3 0 C3 2.31 3 4.62 3 7 C3.99 7 4.98 7 6 7 C6.33 13.6 6.66 20.2 7 27 C8.98 26.34 10.96 25.68 13 25 C13 19.39 13 13.78 13 8 C14.98 8 16.96 8 19 8 C19 8.99 19 9.98 19 11 C18.01 11 17.02 11 16 11 C16.0928125 12.09699219 16.185625 13.19398437 16.28125 14.32421875 C16.95970145 25.70668805 16.95970145 25.70668805 14.359375 29.2109375 C11.39206288 31.11221527 9.3521578 32.21337242 5.796875 31.65234375 C4 31 4 31 3 30 C2.91330568 28.5112814 2.89296506 27.018555 2.90234375 25.52734375 C2.90717773 24.17866211 2.90717773 24.17866211 2.91210938 22.80273438 C2.92048828 21.85720703 2.92886719 20.91167969 2.9375 19.9375 C2.94201172 18.98810547 2.94652344 18.03871094 2.95117188 17.06054688 C2.9629989 14.70696935 2.97947975 12.35351523 3 10 C2.34 10 1.68 10 1 10 C1 15.94 1 21.88 1 28 C0.67 28 0.34 28 0 28 C0 18.76 0 9.52 0 0 Z " fill="#15293B" transform="translate(28,3)"/>
<path d="M0 0 C0.82741699 0.01047363 1.65483398 0.02094727 2.50732422 0.03173828 C3.40322266 0.03818359 4.29912109 0.04462891 5.22216797 0.05126953 C6.62789062 0.07640625 6.62789062 0.07640625 8.06201172 0.10205078 C9.00689453 0.11107422 9.95177734 0.12009766 10.92529297 0.12939453 C13.26278464 0.15300556 15.59977295 0.18593562 17.93701172 0.22705078 C17.93701172 0.55705078 17.93701172 0.88705078 17.93701172 1.22705078 C11.66701172 1.22705078 5.39701172 1.22705078 -1.06298828 1.22705078 C-1.06298828 3.53705078 -1.06298828 5.84705078 -1.06298828 8.22705078 C4.87701172 8.22705078 10.81701172 8.22705078 16.93701172 8.22705078 C16.93701172 8.55705078 16.93701172 8.88705078 16.93701172 9.22705078 C11.98701172 9.55705078 7.03701172 9.88705078 1.93701172 10.22705078 C3.25701172 11.87705078 4.57701172 13.52705078 5.93701172 15.22705078 C7.18701172 18.53955078 7.18701172 18.53955078 7.93701172 21.22705078 C4.96701172 21.22705078 1.99701172 21.22705078 -1.06298828 21.22705078 C-1.06298828 22.87705078 -1.06298828 24.52705078 -1.06298828 26.22705078 C4.87701172 26.22705078 10.81701172 26.22705078 16.93701172 26.22705078 C16.60701172 26.88705078 16.27701172 27.54705078 15.93701172 28.22705078 C16.59701172 28.88705078 17.25701172 29.54705078 17.93701172 30.22705078 C14.64541856 30.28495431 11.35395569 30.32061339 8.06201172 30.35205078 C6.65628906 30.3771875 6.65628906 30.3771875 5.22216797 30.40283203 C3.87832031 30.4125 3.87832031 30.4125 2.50732422 30.42236328 C1.67990723 30.43283691 0.85249023 30.44331055 0 30.45410156 C-2.06298828 30.22705078 -2.06298828 30.22705078 -4.06298828 28.22705078 C-4.32861328 26.35205078 -4.32861328 26.35205078 -4.31298828 24.22705078 C-4.31814453 23.52580078 -4.32330078 22.82455078 -4.32861328 22.10205078 C-4.06298828 20.22705078 -4.06298828 20.22705078 -2.06298828 18.22705078 C0.06201172 17.60205078 0.06201172 17.60205078 1.93701172 17.22705078 C1.50388672 16.73076172 1.07076172 16.23447266 0.62451172 15.72314453 C-2.30612677 12.14803693 -3.95889977 10.03373671 -4.56298828 5.35205078 C-4.01624305 1.93489309 -3.62809622 0.39930526 0 0 Z " fill="#102A34" transform="translate(124.06298828125,1.77294921875)"/>
<path d="M0 0 C5.625 -0.25 5.625 -0.25 9 2 C9.66 1.34 10.32 0.68 11 0 C13.71454956 -0.32752234 16.25230759 -0.1308425 19 0 C19.33 0.33 19.66 0.66 20 1 C21.34747084 1.23075082 22.70377565 1.41153063 24.0625 1.5625 C25.361875 1.706875 26.66125 1.85125 28 2 C27.67 2.99 27.34 3.98 27 5 C24.03 5 21.06 5 18 5 C18 4.34 18 3.68 18 3 C16.35 3 14.7 3 13 3 C13 3.66 13 4.32 13 5 C12.01 5 11.02 5 10 5 C10.3196875 5.50273438 10.639375 6.00546875 10.96875 6.5234375 C12.59705868 10.43384548 12.43187631 14.50915836 12.56640625 18.6875 C12.63172461 22.79345353 12.63172461 22.79345353 15 26 C17.89223503 26.46396693 17.89223503 26.46396693 21.125 26.625 C22.22070312 26.69976563 23.31640625 26.77453125 24.4453125 26.8515625 C25.28835938 26.90054687 26.13140625 26.94953125 27 27 C27 27.33 27 27.66 27 28 C23.37 28.33 19.74 28.66 16 29 C19.96 29.33 23.92 29.66 28 30 C28 30.33 28 30.66 28 31 C15.49476229 31.76148268 15.49476229 31.76148268 10.6875 29.3125 C8.41205426 24.8458843 8.43921887 20.83026627 8.43359375 15.86328125 C8.29050781 14.91839844 8.14742187 13.97351562 8 13 C6.08136265 11.53089675 6.08136265 11.53089675 4 11 C4 10.34 4 9.68 4 9 C2.02 9 0.04 9 -2 9 C-2 8.67 -2 8.34 -2 8 C0.31 8 2.62 8 5 8 C5 5.69 5 3.38 5 1 C3.35 1 1.7 1 0 1 C0 0.67 0 0.34 0 0 Z " fill="#13284F" transform="translate(232,2)"/>
<path d="M0 0 C2.64 0 5.28 0 8 0 C8.83848804 1.45537568 9.67063934 2.91440373 10.5 4.375 C10.9640625 5.18710937 11.428125 5.99921875 11.90625 6.8359375 C13 9 13 9 13 11 C13.66 11 14.32 11 15 11 C15 12.65 15 14.3 15 16 C9.06 16 3.12 16 -3 16 C-3 14.35 -3 12.7 -3 11 C-0.03 11 2.94 11 6 11 C5.65066406 10.37351562 5.30132812 9.74703125 4.94140625 9.1015625 C4.48636719 8.28429688 4.03132812 7.46703125 3.5625 6.625 C2.88380859 5.40683594 2.88380859 5.40683594 2.19140625 4.1640625 C1.4349464 2.79003378 0.70145369 1.40290739 0 0 Z " fill="#73F2A9" transform="translate(126,12)"/>
<path d="M0 0 C2.64 0 5.28 0 8 0 C8.83848804 1.45537568 9.67063934 2.91440373 10.5 4.375 C10.9640625 5.18710937 11.428125 5.99921875 11.90625 6.8359375 C13 9 13 9 13 11 C13.66 11 14.32 11 15 11 C15 12.65 15 14.3 15 16 C9.06 16 3.12 16 -3 16 C-3 14.35 -3 12.7 -3 11 C-0.03 11 2.94 11 6 11 C5.65066406 10.37351562 5.30132812 9.74703125 4.94140625 9.1015625 C4.48636719 8.28429688 4.03132813 7.46703125 3.5625 6.625 C2.88380859 5.40683594 2.88380859 5.40683594 2.19140625 4.1640625 C1.4349464 2.79003378 0.70145369 1.40290739 0 0 Z " fill="#73F2A9" transform="translate(80,12)"/>
<path d="M0 0 C3.875 0.25 3.875 0.25 4.875 1.25 C6.72391946 1.48363881 8.57988031 1.66303635 10.4375 1.8125 C11.95537109 1.93818359 11.95537109 1.93818359 13.50390625 2.06640625 C14.67759766 2.15728516 14.67759766 2.15728516 15.875 2.25 C15.545 3.24 15.215 4.23 14.875 5.25 C10.915 5.25 6.955 5.25 2.875 5.25 C2.875 4.26 2.875 3.27 2.875 2.25 C-2.14035052 2.57960216 -2.14035052 2.57960216 -6.125 5.25 C-6.52547444 7.57275177 -6.8647104 9.90739357 -7.125 12.25 C-8.115 12.58 -9.105 12.91 -10.125 13.25 C-10.17398438 14.45398438 -10.22296875 15.65796875 -10.2734375 16.8984375 C-10.34846343 18.47398198 -10.42401133 20.04950166 -10.5 21.625 C-10.54640625 22.81609375 -10.54640625 22.81609375 -10.59375 24.03125 C-10.8984375 30.0234375 -10.8984375 30.0234375 -13.125 32.25 C-15.81339385 32.51991906 -18.41641936 32.33737357 -21.125 32.25 C-21.125 31.92 -21.125 31.59 -21.125 31.25 C-19.145 30.92 -17.165 30.59 -15.125 30.25 C-16.775 29.92 -18.425 29.59 -20.125 29.25 C-20.125 28.92 -20.125 28.59 -20.125 28.25 C-18.145 28.25 -16.165 28.25 -14.125 28.25 C-14.125 21.98 -14.125 15.71 -14.125 9.25 C-13.135 9.25 -12.145 9.25 -11.125 9.25 C-11.125 6.94 -11.125 4.63 -11.125 2.25 C-10.526875 2.476875 -9.92875 2.70375 -9.3125 2.9375 C-8.590625 3.040625 -7.86875 3.14375 -7.125 3.25 C-6.7125 2.775625 -6.3 2.30125 -5.875 1.8125 C-3.71660934 -0.11463452 -2.83400762 0.01512815 0 0 Z " fill="#193348" transform="translate(200.125,1.75)"/>
<path d="M0 0 C1.98 0 3.96 0 6 0 C6 3.3 6 6.6 6 10 C7.32 10 8.64 10 10 10 C10 11.98 10 13.96 10 16 C5.38 16 0.76 16 -4 16 C-4 14.02 -4 12.04 -4 10 C-2.68 10 -1.36 10 0 10 C0 6.7 0 3.4 0 0 Z " fill="#73F2A9" transform="translate(346,13)"/>
<path d="M0 0 C2.64 0 5.28 0 8 0 C8 8.91 8 17.82 8 27 C3.38 27 -1.24 27 -6 27 C-5.67 26.34 -5.34 25.68 -5 25 C-1.37 25 2.26 25 6 25 C6 23.02 6 21.04 6 19 C3.03 19 0.06 19 -3 19 C-3 18.01 -3 17.02 -3 16 C-0.03 16 2.94 16 6 16 C6 14.02 6 12.04 6 10 C3.03 10 0.06 10 -3 10 C-3 9.01 -3 8.02 -3 7 C-0.03 7 2.94 7 6 7 C6 5.02 6 3.04 6 1 C4.02 1 2.04 1 0 1 C0 0.67 0 0.34 0 0 Z " fill="#234079" transform="translate(253,5)"/>
<path d="M0 0 C3.3 0 6.6 0 10 0 C10.99 1.98 11.98 3.96 13 6 C13.474375 5.01 13.94875 4.02 14.4375 3 C17 0 17 0 19.1640625 -0.50390625 C25.08486627 -0.64855129 25.08486627 -0.64855129 27.796875 1.2734375 C29 3 29 3 29.07421875 5.04296875 C28.71614583 7.02864583 28.35807292 9.01432292 28 11 C27.34 10.34 26.68 9.68 26 9 C25.01 10.32 24.02 11.64 23 13 C22.3125 11.375 22.3125 11.375 22 9 C23.4375 5.75 23.4375 5.75 25 3 C21.63147485 2.9434891 21.63147485 2.9434891 18 4 C16.1455908 6.2231534 15.21440756 8.32830337 14 11 C12.68 11 11.36 11 10 11 C10 8.36 10 5.72 10 3 C7.03 3 4.06 3 1 3 C0.67 2.01 0.34 1.02 0 0 Z " fill="#182C5F" transform="translate(312,2)"/>
<path d="M0 0 C1.64574566 -0.02688151 3.29161413 -0.04634123 4.9375 -0.0625 C5.85402344 -0.07410156 6.77054688 -0.08570313 7.71484375 -0.09765625 C10 0 10 0 11 1 C11.53479509 5.31797514 11.73400636 9.65860377 12 14 C12.1134375 15.03382812 12.226875 16.06765625 12.34375 17.1328125 C12.55929748 19.95802405 12.65284643 22.24045055 12 25 C9.70063223 27.55606678 7.30642781 29.05875413 4 30 C2.68 29.67 1.36 29.34 0 29 C0 25.04 0 21.08 0 17 C0.66 17 1.32 17 2 17 C2.33 19.64 2.66 22.28 3 25 C4.98 24.34 6.96 23.68 9 23 C8.91621094 22.33355469 8.83242187 21.66710937 8.74609375 20.98046875 C7.99189554 14.15449759 8.1440203 7.80833088 9 1 C6.03 1 3.06 1 0 1 C0 0.67 0 0.34 0 0 Z " fill="#1C3751" transform="translate(206,5)"/>
<path d="M0 0 C5.94 0 11.88 0 18 0 C18 2.64 18 5.28 18 8 C14.535 9.485 14.535 9.485 11 11 C11 7.7 11 4.4 11 1 C9.35 1 7.7 1 6 1 C6 2.65 6 4.3 6 6 C4.02 6.99 2.04 7.98 0 9 C0 6.03 0 3.06 0 0 Z " fill="#CBF878" transform="translate(266,20)"/>
<path d="M0 0 C5.94 0 11.88 0 18 0 C18 2.64 18 5.28 18 8 C14.535 9.485 14.535 9.485 11 11 C11 7.7 11 4.4 11 1 C9.35 1 7.7 1 6 1 C6 2.65 6 4.3 6 6 C4.02 6.99 2.04 7.98 0 9 C0 6.03 0 3.06 0 0 Z " fill="#CBF878" transform="translate(197,20)"/>
<path d="M0 0 C1.98 0 3.96 0 6 0 C6.25 2.8125 6.25 2.8125 6 6 C3.61831539 8.5217837 2.24698247 8.9776284 -1.234375 9.29296875 C-2.39453125 9.25816406 -3.5546875 9.22335938 -4.75 9.1875 C-5.92046875 9.16042969 -7.0909375 9.13335937 -8.296875 9.10546875 C-9.18890625 9.07066406 -10.0809375 9.03585938 -11 9 C-11 7.02 -11 5.04 -11 3 C-7.37 3 -3.74 3 0 3 C0 2.01 0 1.02 0 0 Z " fill="#73F2A9" transform="translate(66,20)"/>
<path d="M0 0 C2.31 0 4.62 0 7 0 C7 5.28 7 10.56 7 16 C4.69 16 2.38 16 0 16 C0 10.72 0 5.44 0 0 Z " fill="#FFF2FF" transform="translate(19,4)"/>
<path d="M0 0 C4.95 0 9.9 0 15 0 C15 0.33 15 0.66 15 1 C12.03 1 9.06 1 6 1 C6 1.99 6 2.98 6 4 C8.97 4 11.94 4 15 4 C15 5.65 15 7.3 15 9 C13.06318839 9.08107583 11.1254066 9.13922475 9.1875 9.1875 C8.10855469 9.22230469 7.02960938 9.25710937 5.91796875 9.29296875 C3 9 3 9 1.11328125 7.86328125 C0 6 0 6 0 0 Z " fill="#73F2A9" transform="translate(244,20)"/>
<path d="M0 0 C6.15234375 -0.09765625 6.15234375 -0.09765625 8 0 C10.53727633 2.53727633 9.23433923 9.46486756 9.25 12.875 C9.270625 13.99003906 9.29125 15.10507812 9.3125 16.25390625 C9.31765625 17.32253906 9.3228125 18.39117188 9.328125 19.4921875 C9.3374707 20.47558105 9.34681641 21.45897461 9.35644531 22.47216797 C9 25 9 25 7.71655273 26.82592773 C4.74676767 28.85717455 1.27531726 28.30544749 -2.1875 28.1875 C-2.93708984 28.17396484 -3.68667969 28.16042969 -4.45898438 28.14648438 C-6.30629767 28.11118539 -8.15324066 28.05737917 -10 28 C-9.67 27.34 -9.34 26.68 -9 26 C-5.04 26 -1.08 26 3 26 C3 25.34 3 24.68 3 24 C3.99 23.34 4.98 22.68 6 22 C6.50776044 19.78067723 6.50776044 19.78067723 6.51171875 17.2109375 C6.54716797 16.26992188 6.58261719 15.32890625 6.61914062 14.359375 C6.64169922 13.37453125 6.66425781 12.3896875 6.6875 11.375 C6.72166016 10.38242188 6.75582031 9.38984375 6.79101562 8.3671875 C6.87365657 5.91157094 6.94275127 3.45631859 7 1 C4.69 1 2.38 1 0 1 C0 0.67 0 0.34 0 0 Z " fill="#2E4D76" transform="translate(65,4)"/>
<path d="M0 0 C3.83779873 1.01166463 7.1421449 2.1421449 10 5 C9.96712417 7.72869407 9.43602229 10.2966618 9 13 C7.68 13 6.36 13 5 13 C5 12.34 5 11.68 5 11 C3.02 11 1.04 11 -1 11 C-1 10.67 -1 10.34 -1 10 C1.31 10 3.62 10 6 10 C6 8.35 6 6.7 6 5 C3.69 5 1.38 5 -1 5 C-1 4.34 -1 3.68 -1 3 C-2.98 3 -4.96 3 -7 3 C-7 3.66 -7 4.32 -7 5 C-8.32 5 -9.64 5 -11 5 C-11.33 4.01 -11.66 3.02 -12 2 C-7.92499166 -0.71667223 -4.78291855 -0.51686378 0 0 Z " fill="#0D1F46" transform="translate(42,0)"/>
<path d="M0 0 C1.98 0 3.96 0 6 0 C6 0.99 6 1.98 6 3 C5.01 3 4.02 3 3 3 C3.0928125 4.09699219 3.185625 5.19398437 3.28125 6.32421875 C3.95997893 17.73345437 3.95997893 17.73345437 1.32421875 21.2109375 C-0.81760174 22.56572706 -2.52015965 23.47368589 -5 24 C-5.99 23.67 -6.98 23.34 -8 23 C-7.375 21.125 -7.375 21.125 -6 19 C-4.02 18.34 -2.04 17.68 0 17 C0 11.39 0 5.78 0 0 Z " fill="#1B344B" transform="translate(371,11)"/>
<path d="M0 0 C1.98 0 3.96 0 6 0 C6 0.99 6 1.98 6 3 C5.01 3 4.02 3 3 3 C3.0928125 4.09699219 3.185625 5.19398437 3.28125 6.32421875 C3.95997893 17.73345437 3.95997893 17.73345437 1.32421875 21.2109375 C-0.81760174 22.56572706 -2.52015965 23.47368589 -5 24 C-5.99 23.67 -6.98 23.34 -8 23 C-7.375 21.125 -7.375 21.125 -6 19 C-4.02 18.34 -2.04 17.68 0 17 C0 11.39 0 5.78 0 0 Z " fill="#1B344B" transform="translate(230,11)"/>
<path d="M0 0 C1.98 0 3.96 0 6 0 C6 0.99 6 1.98 6 3 C5.01 3 4.02 3 3 3 C3.0928125 4.09699219 3.185625 5.19398437 3.28125 6.32421875 C3.95997893 17.73345437 3.95997893 17.73345437 1.32421875 21.2109375 C-0.81760174 22.56572706 -2.52015965 23.47368589 -5 24 C-5.99 23.67 -6.98 23.34 -8 23 C-7.375 21.125 -7.375 21.125 -6 19 C-4.02 18.34 -2.04 17.68 0 17 C0 11.39 0 5.78 0 0 Z " fill="#1B344B" transform="translate(41,11)"/>
<path d="M0 0 C2.97 0 5.94 0 9 0 C9 9.9 9 19.8 9 30 C0.75 30 -7.5 30 -16 30 C-16 29.67 -16 29.34 -16 29 C-8.74 28.67 -1.48 28.34 6 28 C6.33 19.42 6.66 10.84 7 2 C4.69 2 2.38 2 0 2 C0 1.34 0 0.68 0 0 Z " fill="#354F8F" transform="translate(19,2)"/>
<path d="M0 0 C1.2065625 0.0309375 1.2065625 0.0309375 2.4375 0.0625 C1.1175 0.3925 -0.2025 0.7225 -1.5625 1.0625 C-1.5625 3.0425 -1.5625 5.0225 -1.5625 7.0625 C4.3775 7.0625 10.3175 7.0625 16.4375 7.0625 C16.7675 8.3825 17.0975 9.7025 17.4375 11.0625 C14.12501813 11.09138146 10.81256833 11.10925799 7.5 11.125 C6.55447266 11.13337891 5.60894531 11.14175781 4.63476562 11.15039062 C3.28608398 11.15522461 3.28608398 11.15522461 1.91015625 11.16015625 C1.07750244 11.16539307 0.24484863 11.17062988 -0.61303711 11.17602539 C-2.5625 11.0625 -2.5625 11.0625 -3.5625 10.0625 C-3.6604057 8.56511876 -3.69224864 7.06307108 -3.6875 5.5625 C-3.69007812 4.7478125 -3.69265625 3.933125 -3.6953125 3.09375 C-3.49425003 0.01867689 -3.10408492 0.07570939 0 0 Z " fill="#25405E" transform="translate(78.5625,20.9375)"/>
<path d="M0 0 C1.85772162 0.08984301 3.71247985 0.24611861 5.5625 0.4375 C7.08037109 0.59025391 7.08037109 0.59025391 8.62890625 0.74609375 C9.80259766 0.87177734 9.80259766 0.87177734 11 1 C11 1.33 11 1.66 11 2 C8.03 2 5.06 2 2 2 C2 3.65 2 5.3 2 7 C7.94 7 13.88 7 20 7 C19.67 7.66 19.34 8.32 19 9 C19.66 9.66 20.32 10.32 21 11 C17.70840684 11.05790353 14.41694397 11.09356261 11.125 11.125 C9.71927734 11.15013672 9.71927734 11.15013672 8.28515625 11.17578125 C6.94130859 11.18544922 6.94130859 11.18544922 5.5703125 11.1953125 C4.74289551 11.20578613 3.91547852 11.21625977 3.06298828 11.22705078 C1 11 1 11 -1 9 C-1.32752234 6.28545044 -1.1308425 3.74769241 -1 1 C-0.67 0.67 -0.34 0.34 0 0 Z " fill="#102847" transform="translate(121,21)"/>
<path d="M0 0 C1.98 0 3.96 0 6 0 C6 0.99 6 1.98 6 3 C5.01 3 4.02 3 3 3 C3.06960937 4.10859375 3.13921875 5.2171875 3.2109375 6.359375 C3.26722523 7.822856 3.32182432 9.28640262 3.375 10.75 C3.42527344 11.47960938 3.47554687 12.20921875 3.52734375 12.9609375 C3.5859375 15.109375 3.5859375 15.109375 3 19 C0.125 21.53125 0.125 21.53125 -3 23 C-5.375 22.75 -5.375 22.75 -7 22 C-5.37660195 20.29115995 -3.70680947 18.62553283 -2 17 C-1.34 17 -0.68 17 0 17 C0 11.39 0 5.78 0 0 Z " fill="#1D354F" transform="translate(156,11)"/>
<path d="M0 0 C0 0.33 0 0.66 0 1 C-1.65 1 -3.3 1 -5 1 C-5 1.66 -5 2.32 -5 3 C-5.99 3 -6.98 3 -8 3 C-7.68289063 3.47953125 -7.36578125 3.9590625 -7.0390625 4.453125 C-5.52584233 8.16222106 -5.53308589 11.77809202 -5.375 15.75 C-5.33632813 16.54277344 -5.29765625 17.33554687 -5.2578125 18.15234375 C-5.163892 20.10119416 -5.08087178 22.05056451 -5 24 C-4.34 24.33 -3.68 24.66 -3 25 C-3.99 25.99 -4.98 26.98 -6 28 C-6.99 27.67 -7.98 27.34 -9 27 C-9.2545727 23.06370868 -9.47429232 19.12623132 -9.6875 15.1875 C-9.76033203 14.06794922 -9.83316406 12.94839844 -9.90820312 11.79492188 C-9.96298828 10.72177734 -10.01777344 9.64863281 -10.07421875 8.54296875 C-10.13182373 7.55321045 -10.18942871 6.56345215 -10.2487793 5.54370117 C-10 3 -10 3 -8.72583008 1.1652832 C-5.95585155 -0.70501069 -3.23553515 -0.1831435 0 0 Z " fill="#19335E" transform="translate(272,4)"/>
<path d="M0 0 C5.94 0 11.88 0 18 0 C18 1.65 18 3.3 18 5 C12.06 5 6.12 5 0 5 C0 3.35 0 1.7 0 0 Z " fill="#FFF2FF" transform="translate(123,5)"/>
<path d="M0 0 C5.94 0 11.88 0 18 0 C18 1.65 18 3.3 18 5 C12.06 5 6.12 5 0 5 C0 3.35 0 1.7 0 0 Z " fill="#FFF2FF" transform="translate(77,5)"/>
<path d="M0 0 C1.98 0 3.96 0 6 0 C6 0.66 6 1.32 6 2 C7.32 2 8.64 2 10 2 C10 3.65 10 5.3 10 7 C5.38 7 0.76 7 -4 7 C-4 5.35 -4 3.7 -4 2 C-2.68 2 -1.36 2 0 2 C0 1.34 0 0.68 0 0 Z " fill="#FFF2FF" transform="translate(346,4)"/>
<path d="M0 0 C1.32 0 2.64 0 4 0 C4 0.99 4 1.98 4 3 C3.01 3 2.02 3 1 3 C1 4.98 1 6.96 1 9 C1.99 9 2.98 9 4 9 C4 12.63 4 16.26 4 20 C5.65 20 7.3 20 9 20 C9.33 20.66 9.66 21.32 10 22 C7.36 22 4.72 22 2 22 C2 20.02 2 18.04 2 16 C0.02 16.99 -1.96 17.98 -4 19 C-2.125 15.125 -2.125 15.125 -1 14 C-0.76472227 11.65012738 -0.58613583 9.29443961 -0.4375 6.9375 C-0.35371094 5.64714844 -0.26992187 4.35679688 -0.18359375 3.02734375 C-0.12300781 2.02832031 -0.06242188 1.02929688 0 0 Z M-5 19 C-4.67 19.66 -4.34 20.32 -4 21 C-4.66 20.67 -5.32 20.34 -6 20 C-5.67 19.67 -5.34 19.34 -5 19 Z " fill="#2B4D71" transform="translate(176,11)"/>
<path d="M0 0 C0.99 0.33 1.98 0.66 3 1 C2.34 1 1.68 1 1 1 C1 2.65 1 4.3 1 6 C2.32 6.66 3.64 7.32 5 8 C5.05399736 9.45792884 5.09279177 10.91642712 5.125 12.375 C5.14820313 13.18710937 5.17140625 13.99921875 5.1953125 14.8359375 C5 17 5 17 3 19 C0.25514407 19.14507695 -2.38480543 19.18652423 -5.125 19.125 C-5.87910156 19.11597656 -6.63320313 19.10695313 -7.41015625 19.09765625 C-9.27357254 19.0740687 -11.13682593 19.03819719 -13 19 C-13 18.67 -13 18.34 -13 18 C-8.38 17.67 -3.76 17.34 1 17 C-3.29 16.67 -7.58 16.34 -12 16 C-12 15.67 -12 15.34 -12 15 C-7.38 15 -2.76 15 2 15 C2 13.02 2 11.04 2 9 C0.68 8.67 -0.64 8.34 -2 8 C-1.34 7.67 -0.68 7.34 0 7 C0 4.69 0 2.38 0 0 Z " fill="#0B1E2F" transform="translate(354,14)"/>
<path d="M0 0 C0.33 0.33 0.66 0.66 1 1 C2.84891946 1.23363881 4.70488031 1.41303635 6.5625 1.5625 C7.57441406 1.64628906 8.58632813 1.73007812 9.62890625 1.81640625 C10.80259766 1.90728516 10.80259766 1.90728516 12 2 C11.67 2.99 11.34 3.98 11 5 C7.04 5 3.08 5 -1 5 C-1 4.01 -1 3.02 -1 2 C-6.01535052 2.32960216 -6.01535052 2.32960216 -10 5 C-10.37135915 7.52037964 -10.37135915 7.52037964 -10.4140625 10.4453125 C-10.45273437 11.52167969 -10.49140625 12.59804687 -10.53125 13.70703125 C-10.5621875 14.83496094 -10.593125 15.96289062 -10.625 17.125 C-10.66367187 18.26066406 -10.70234375 19.39632813 -10.7421875 20.56640625 C-10.83667601 23.37743956 -10.92223541 26.18846233 -11 29 C-11.33 29 -11.66 29 -12 29 C-12.11614929 24.9169058 -12.18723457 20.83423623 -12.25 16.75 C-12.28351563 15.59113281 -12.31703125 14.43226562 -12.3515625 13.23828125 C-12.36445313 12.12324219 -12.37734375 11.00820312 -12.390625 9.859375 C-12.41157227 8.83295898 -12.43251953 7.80654297 -12.45410156 6.74902344 C-11.24549305 -0.56760656 -6.09952427 -0.49996101 0 0 Z " fill="#090F38" transform="translate(273,2)"/>
<path d="M0 0 C1.32 0 2.64 0 4 0 C4.21914063 0.63808594 4.43828125 1.27617187 4.6640625 1.93359375 C5.6271277 4.44304412 6.57803731 6.71624175 8 9 C11.116025 10.21790719 11.116025 10.21790719 14 10 C13.34 10.66 12.68 11.32 12 12 C12.99 12.66 13.98 13.32 15 14 C12.36 14 9.72 14 7 14 C5.02 10.535 5.02 10.535 3 7 C2.67 8.98 2.34 10.96 2 13 C-0.20914 9.68629 -0.22481553 8.6553979 -0.125 4.8125 C-0.10695313 3.91144531 -0.08890625 3.01039062 -0.0703125 2.08203125 C-0.04710937 1.39496094 -0.02390625 0.70789063 0 0 Z " fill="#132B39" transform="translate(322,19)"/>
<path d="M0 0 C2.31 0 4.62 0 7 0 C7 2.64 7 5.28 7 8 C3.535 9.485 3.535 9.485 0 11 C0 7.37 0 3.74 0 0 Z " fill="#73F2A9" transform="translate(364,20)"/>
<path d="M0 0 C2.31 0 4.62 0 7 0 C7 2.64 7 5.28 7 8 C3.535 9.485 3.535 9.485 0 11 C0 7.37 0 3.74 0 0 Z " fill="#73F2A9" transform="translate(223,20)"/>
<path d="M0 0 C2.31 0 4.62 0 7 0 C7 2.64 7 5.28 7 8 C3.535 9.485 3.535 9.485 0 11 C0 7.37 0 3.74 0 0 Z " fill="#73F2A9" transform="translate(149,20)"/>
<path d="M0 0 C2.31 0 4.62 0 7 0 C7 2.64 7 5.28 7 8 C3.535 9.485 3.535 9.485 0 11 C0 7.37 0 3.74 0 0 Z " fill="#73F2A9" transform="translate(34,20)"/>
<path d="M0 0 C1.98 0 3.96 0 6 0 C6 3.3 6 6.6 6 10 C4.02 10 2.04 10 0 10 C0 6.7 0 3.4 0 0 Z " fill="#73F2A9" transform="translate(180,20)"/>
<path d="M0 0 C0.33 0.33 0.66 0.66 1 1 C2.84891946 1.23363881 4.70488031 1.41303635 6.5625 1.5625 C7.57441406 1.64628906 8.58632812 1.73007812 9.62890625 1.81640625 C10.80259766 1.90728516 10.80259766 1.90728516 12 2 C11.67 2.99 11.34 3.98 11 5 C7.04 5 3.08 5 -1 5 C-1 4.01 -1 3.02 -1 2 C-6.01535052 2.32960216 -6.01535052 2.32960216 -10 5 C-10.40047444 7.32275177 -10.7397104 9.65739357 -11 12 C-11.66 11.34 -12.32 10.68 -13 10 C-11.49001815 3.84392015 -11.49001815 3.84392015 -9.875 1.0625 C-6.67481898 -0.75093591 -3.62265167 -0.23371946 0 0 Z " fill="#0B1348" transform="translate(204,2)"/>
<path d="M0 0 C1.98 0 3.96 0 6 0 C10 6.75 10 6.75 10 9 C8.02 9 6.04 9 4 9 C0 2.25 0 2.25 0 0 Z " fill="#73F2A9" transform="translate(326,20)"/>
<path d="M0 0 C2.64 0 5.28 0 8 0 C9.32 2.64 10.64 5.28 12 8 C8.8125 8.5 8.8125 8.5 5 8 C2.84975764 5.57299378 1.40896506 2.90883109 0 0 Z " fill="#FFF2FF" transform="translate(126,12)"/>
<path d="M0 0 C2.64 0 5.28 0 8 0 C9.32 2.64 10.64 5.28 12 8 C8.8125 8.5 8.8125 8.5 5 8 C2.84975764 5.57299378 1.40896506 2.90883109 0 0 Z " fill="#FFF2FF" transform="translate(80,12)"/>
<path d="M0 0 C1.65 0 3.3 0 5 0 C5 3.96 5 7.92 5 12 C3.35 11.67 1.7 11.34 0 11 C0 7.37 0 3.74 0 0 Z " fill="#234866" transform="translate(61,11)"/>
<path d="M0 0 C1.65 0 3.3 0 5 0 C4.01 0.495 4.01 0.495 3 1 C3 4.63 3 8.26 3 12 C2.67 11.01 2.34 10.02 2 9 C1.071875 9.515625 0.14375 10.03125 -0.8125 10.5625 C-4 12 -4 12 -7 11 C-3.25 6.125 -3.25 6.125 -1 5 C-0.34444881 2.47266765 -0.34444881 2.47266765 0 0 Z " fill="#152E3E" transform="translate(272,21)"/>
<path d="M0 0 C1.65 0 3.3 0 5 0 C4.01 0.495 4.01 0.495 3 1 C3 4.63 3 8.26 3 12 C2.67 11.01 2.34 10.02 2 9 C1.071875 9.515625 0.14375 10.03125 -0.8125 10.5625 C-4 12 -4 12 -7 11 C-3.25 6.125 -3.25 6.125 -1 5 C-0.34444881 2.47266765 -0.34444881 2.47266765 0 0 Z " fill="#152E3E" transform="translate(203,21)"/>
<path d="M0 0 C1.98 0 3.96 0 6 0 C6 2.97 6 5.94 6 9 C4.02 9 2.04 9 0 9 C0 6.03 0 3.06 0 0 Z " fill="#73F2A9" transform="translate(316,20)"/>
<path d="M0 0 C0.99 0 1.98 0 3 0 C3.66 1.98 4.32 3.96 5 6 C5.5775 5.855625 6.155 5.71125 6.75 5.5625 C8.83333333 5.04166667 10.91666667 4.52083333 13 4 C13 5.65 13 7.3 13 9 C12.34 8.34 11.68 7.68 11 7 C10.608125 7.515625 10.21625 8.03125 9.8125 8.5625 C8 10 8 10 5.5 10 C2.178426 8.6713704 1.42744263 7.23052806 0 4 C0 2.68 0 1.36 0 0 Z M6 7 C5.67 7.66 5.34 8.32 5 9 C5.66 9 6.32 9 7 9 C6.67 8.34 6.34 7.68 6 7 Z " fill="#152B3C" transform="translate(165,23)"/>
<path d="M0 0 C1.98 0 3.96 0 6 0 C6.25 2.25 6.25 2.25 6 5 C4.125 7.3125 4.125 7.3125 2 9 C1.34 9 0.68 9 0 9 C-1.125 6.75 -1.125 6.75 -2 4 C-1.125 1.6875 -1.125 1.6875 0 0 Z " fill="#73F2A9" transform="translate(170,20)"/>
<path d="M0 0 C2.5 1.5 2.5 1.5 4 3 C3.67 3.66 3.34 4.32 3 5 C1.68 5 0.36 5 -1 5 C-1 4.34 -1 3.68 -1 3 C-2.98 3 -4.96 3 -7 3 C-7 3.66 -7 4.32 -7 5 C-8.9375 4.625 -8.9375 4.625 -11 4 C-11.33 3.34 -11.66 2.68 -12 2 C-8.25577071 -0.49615286 -4.34882801 -0.61489576 0 0 Z " fill="#111F4E" transform="translate(353,1)"/>
<path d="M0 0 C1.21236328 0.02707031 1.21236328 0.02707031 2.44921875 0.0546875 C3.37154297 0.08949219 3.37154297 0.08949219 4.3125 0.125 C4.6425 1.115 4.9725 2.105 5.3125 3.125 C6.9625 3.125 8.6125 3.125 10.3125 3.125 C10.3125 3.455 10.3125 3.785 10.3125 4.125 C6.0225 3.795 1.7325 3.465 -2.6875 3.125 C-2.6875 3.785 -2.6875 4.445 -2.6875 5.125 C-4.0075 5.125 -5.3275 5.125 -6.6875 5.125 C-7.0175 4.135 -7.3475 3.145 -7.6875 2.125 C-4.48369983 -0.01086678 -3.66810033 -0.10632175 0 0 Z " fill="#142467" transform="translate(37.6875,-0.125)"/>
<path d="M0 0 C0.66 0.33 1.32 0.66 2 1 C1.67 3.31 1.34 5.62 1 8 C2.32 8 3.64 8 5 8 C5 11.3 5 14.6 5 18 C3.68 17.67 2.36 17.34 1 17 C1.66 17 2.32 17 3 17 C3 14.69 3 12.38 3 10 C1.68 10 0.36 10 -1 10 C-1.02689216 8.52093108 -1.04634621 7.04172517 -1.0625 5.5625 C-1.07410156 4.73878906 -1.08570313 3.91507812 -1.09765625 3.06640625 C-1 1 -1 1 0 0 Z " fill="#26486A" transform="translate(341,4)"/>
<path d="M0 0 C5.3820598 -0.47840532 5.3820598 -0.47840532 7.9375 1.5 C9.53523388 5.25937383 8.73101269 8.01265807 8 12 C6.68 11.67 5.36 11.34 4 11 C4 10.34 4 9.68 4 9 C2.02 9 0.04 9 -2 9 C-2 8.67 -2 8.34 -2 8 C0.31 8 2.62 8 5 8 C5 5.69 5 3.38 5 1 C3.35 1 1.7 1 0 1 C0 0.67 0 0.34 0 0 Z " fill="#0E242E" transform="translate(232,2)"/>
<path d="M0 0 C2.31 0 4.62 0 7 0 C7 1.65 7 3.3 7 5 C3.535 6.485 3.535 6.485 0 8 C0 5.36 0 2.72 0 0 Z " fill="#73F2A9" transform="translate(277,23)"/>
<path d="M0 0 C2.31 0 4.62 0 7 0 C7 1.65 7 3.3 7 5 C3.535 6.485 3.535 6.485 0 8 C0 5.36 0 2.72 0 0 Z " fill="#73F2A9" transform="translate(208,23)"/>
<path d="M0 0 C5.31365314 -0.35424354 5.31365314 -0.35424354 7.9375 1 C9.71298137 4.34208258 8.65852695 7.34816871 8 11 C6.68 11 5.36 11 4 11 C4 10.34 4 9.68 4 9 C2.02 9 0.04 9 -2 9 C-2 8.67 -2 8.34 -2 8 C0.31 8 2.62 8 5 8 C5 5.69 5 3.38 5 1 C3.35 1 1.7 1 0 1 C0 0.67 0 0.34 0 0 Z " fill="#0F252F" transform="translate(158,2)"/>
<path d="M0 0 C1.98 0 3.96 0 6 0 C6 2.31 6 4.62 6 7 C4.02 7 2.04 7 0 7 C0 4.69 0 2.38 0 0 Z " fill="#FFF2FF" transform="translate(346,13)"/>
<path d="M0 0 C2.875 -0.125 2.875 -0.125 6 0 C8 2 8 2 8.125 5.625 C8.08375 6.73875 8.0425 7.8525 8 9 C6.02 9.99 6.02 9.99 4 11 C4 10.34 4 9.68 4 9 C2.02 9 0.04 9 -2 9 C-2 8.67 -2 8.34 -2 8 C0.31 8 2.62 8 5 8 C5 5.69 5 3.38 5 1 C3.35 1 1.7 1 0 1 C0 0.67 0 0.34 0 0 Z " fill="#102732" transform="translate(373,2)"/>
<path d="M0 0 C1.62418745 -0.08090971 3.24951745 -0.13914995 4.875 -0.1875 C5.77992188 -0.22230469 6.68484375 -0.25710937 7.6171875 -0.29296875 C8.79667969 -0.14794922 8.79667969 -0.14794922 10 0 C12.12508244 3.18762365 12.5020163 5.26512223 13 9 C12.34 9 11.68 9 11 9 C10.67 7.35 10.34 5.7 10 4 C7.03 3.67 4.06 3.34 1 3 C0.67 2.01 0.34 1.02 0 0 Z " fill="#0E194D" transform="translate(312,2)"/>
<path d="M0 0 C2.97 0 5.94 0 9 0 C9 0.66 9 1.32 9 2 C10.65 2 12.3 2 14 2 C14 2.66 14 3.32 14 4 C11.69 4 9.38 4 7 4 C7 3.34 7 2.68 7 2 C4.69 2 2.38 2 0 2 C0 1.34 0 0.68 0 0 Z " fill="#172799" transform="translate(364,1)"/>
<path d="M0 0 C2.97 0 5.94 0 9 0 C9 0.66 9 1.32 9 2 C10.65 2 12.3 2 14 2 C14 2.66 14 3.32 14 4 C11.69 4 9.38 4 7 4 C7 3.34 7 2.68 7 2 C4.69 2 2.38 2 0 2 C0 1.34 0 0.68 0 0 Z " fill="#172799" transform="translate(223,1)"/>
<path d="M0 0 C2.97 0 5.94 0 9 0 C9 0.66 9 1.32 9 2 C10.65 2 12.3 2 14 2 C14 2.66 14 3.32 14 4 C11.69 4 9.38 4 7 4 C7 3.34 7 2.68 7 2 C4.69 2 2.38 2 0 2 C0 1.34 0 0.68 0 0 Z " fill="#172799" transform="translate(149,1)"/>
<path d="M0 0 C0.66 0.33 1.32 0.66 2 1 C1.67 3.64 1.34 6.28 1 9 C0.34 8.34 -0.32 7.68 -1 7 C-1.99 8.32 -2.98 9.64 -4 11 C-4.6875 9.25 -4.6875 9.25 -5 7 C-3.6875 4.75 -3.6875 4.75 -2 3 C-1.34 3 -0.68 3 0 3 C0 2.01 0 1.02 0 0 Z " fill="#0F1D2B" transform="translate(339,4)"/>
<path d="M0 0 C1.98 0 3.96 0 6 0 C5.8125 1.875 5.8125 1.875 5 4 C2.4375 5.25 2.4375 5.25 0 6 C0 4.02 0 2.04 0 0 Z " fill="#73F2A9" transform="translate(266,23)"/>
<path d="M0 0 C1.98 0 3.96 0 6 0 C5.8125 1.875 5.8125 1.875 5 4 C2.4375 5.25 2.4375 5.25 0 6 C0 4.02 0 2.04 0 0 Z " fill="#73F2A9" transform="translate(197,23)"/>
<path d="M0 0 C0.66 0 1.32 0 2 0 C2 2.97 2 5.94 2 9 C2.66 9.33 3.32 9.66 4 10 C2.02 10.99 2.02 10.99 0 12 C0 8.04 0 4.08 0 0 Z " fill="#244666" transform="translate(275,22)"/>
<path d="M0 0 C0.66 0 1.32 0 2 0 C2 2.97 2 5.94 2 9 C2.66 9.33 3.32 9.66 4 10 C2.02 10.99 2.02 10.99 0 12 C0 8.04 0 4.08 0 0 Z " fill="#244666" transform="translate(206,22)"/>
<path d="M0 0 C4.95 0 9.9 0 15 0 C15 0.33 15 0.66 15 1 C12.03 1 9.06 1 6 1 C6 1.66 6 2.32 6 3 C4.02 3 2.04 3 0 3 C0 2.01 0 1.02 0 0 Z " fill="#D2F87C" transform="translate(244,20)"/>
<path d="M0 0 C2.31 0 4.62 0 7 0 C7 0.99 7 1.98 7 3 C4.69 3 2.38 3 0 3 C0 2.01 0 1.02 0 0 Z " fill="#C8F876" transform="translate(364,20)"/>
<path d="M0 0 C2.31 0 4.62 0 7 0 C7 0.99 7 1.98 7 3 C4.69 3 2.38 3 0 3 C0 2.01 0 1.02 0 0 Z " fill="#C8F876" transform="translate(223,20)"/>
<path d="M0 0 C2.31 0 4.62 0 7 0 C7 0.99 7 1.98 7 3 C4.69 3 2.38 3 0 3 C0 2.01 0 1.02 0 0 Z " fill="#C8F876" transform="translate(149,20)"/>
<path d="M0 0 C2.31 0 4.62 0 7 0 C7.33 0.99 7.66 1.98 8 3 C5.69 3 3.38 3 1 3 C0.67 2.01 0.34 1.02 0 0 Z " fill="#C8F876" transform="translate(131,20)"/>
<path d="M0 0 C2.31 0 4.62 0 7 0 C7.33 0.99 7.66 1.98 8 3 C5.69 3 3.38 3 1 3 C0.67 2.01 0.34 1.02 0 0 Z " fill="#C8F876" transform="translate(85,20)"/>
<path d="M0 0 C2.31 0 4.62 0 7 0 C7 0.99 7 1.98 7 3 C4.69 3 2.38 3 0 3 C0 2.01 0 1.02 0 0 Z " fill="#C8F876" transform="translate(34,20)"/>
<path d="M0 0 C2.31 0 4.62 0 7 0 C7 0.99 7 1.98 7 3 C4.69 3 2.38 3 0 3 C0 2.01 0 1.02 0 0 Z " fill="#C8F876" transform="translate(19,20)"/>
<path d="M0 0 C2.31 0 4.62 0 7 0 C7 0.99 7 1.98 7 3 C4.69 3 2.38 3 0 3 C0 2.01 0 1.02 0 0 Z " fill="#0F2A77" transform="translate(272,12)"/>
<path d="M0 0 C2.31 0 4.62 0 7 0 C7 0.99 7 1.98 7 3 C4.69 3 2.38 3 0 3 C0 2.01 0 1.02 0 0 Z " fill="#0F2A77" transform="translate(203,12)"/>
<path d="M0 0 C-0.33 0.99 -0.66 1.98 -1 3 C-2.32 3 -3.64 3 -5 3 C-5 2.34 -5 1.68 -5 1 C-6.98 1 -8.96 1 -11 1 C-11 0.67 -11 0.34 -11 0 C-6.98195309 -0.84098656 -3.98196457 -1.05404945 0 0 Z " fill="#0F168E" transform="translate(357,3)"/>
<path d="M0 0 C1.98 0 3.96 0 6 0 C6.33 0.99 6.66 1.98 7 3 C5.02 3 3.04 3 1 3 C0.67 2.01 0.34 1.02 0 0 Z " fill="#C7F875" transform="translate(326,20)"/>
<path d="M0 0 C1.32 0 2.64 0 4 0 C4 0.99 4 1.98 4 3 C3.01 3 2.02 3 1 3 C1 5.31 1 7.62 1 10 C0.67 10 0.34 10 0 10 C0 6.7 0 3.4 0 0 Z " fill="#19396D" transform="translate(176,11)"/>
<path d="M0 0 C1.98 0 3.96 0 6 0 C6 0.99 6 1.98 6 3 C4.02 3 2.04 3 0 3 C0 2.01 0 1.02 0 0 Z " fill="#C8F876" transform="translate(346,20)"/>
<path d="M0 0 C1.98 0 3.96 0 6 0 C6 0.99 6 1.98 6 3 C4.02 3 2.04 3 0 3 C0 2.01 0 1.02 0 0 Z " fill="#C8F876" transform="translate(316,20)"/>
<path d="M0 0 C1.98 0 3.96 0 6 0 C6 0.99 6 1.98 6 3 C4.02 3 2.04 3 0 3 C0 2.01 0 1.02 0 0 Z " fill="#C8F876" transform="translate(180,20)"/>
<path d="M0 0 C1.98 0 3.96 0 6 0 C6 0.99 6 1.98 6 3 C4.02 3 2.04 3 0 3 C0 2.01 0 1.02 0 0 Z " fill="#C8F876" transform="translate(170,20)"/>
<path d="M0 0 C1.98 0 3.96 0 6 0 C6 0.99 6 1.98 6 3 C4.02 3 2.04 3 0 3 C0 2.01 0 1.02 0 0 Z " fill="#C8F876" transform="translate(66,20)"/>
<path d="M0 0 C1.65 0 3.3 0 5 0 C5.33 0.99 5.66 1.98 6 3 C4.02 3 2.04 3 0 3 C0 2.01 0 1.02 0 0 Z " fill="#C6F875" transform="translate(3,20)"/>
</svg>
